<svg xmlns="http://www.w3.org/2000/svg" xmlns:xlink="http://www.w3.org/1999/xlink" width="500" zoomAndPan="magnify" viewBox="0 0 375 374.999991" height="500" preserveAspectRatio="xMidYMid meet" version="1.0"><defs><g/><clipPath id="92e755758e"><rect x="0" width="327" y="0" height="133"/></clipPath></defs><g transform="matrix(1, 0, 0, 1, 23, 133)"><g clip-path="url(#92e755758e)"><g fill="#38b6ff" fill-opacity="1"><g transform="translate(1.510648, 97.705373)"><g><path d="M 76.28125 -69.0625 L 76.28125 -22.5625 C 76.28125 -19.8125 76.296875 -17.328125 76.328125 -15.109375 C 76.367188 -12.898438 76.460938 -10.628906 76.609375 -8.296875 C 76.765625 -5.972656 76.957031 -3.207031 77.1875 0 L 64.25 0 L 10.53125 -87.15625 L 10.53125 -22.5625 C 10.53125 -19.8125 10.550781 -17.328125 10.59375 -15.109375 C 10.632812 -12.898438 10.726562 -10.628906 10.875 -8.296875 C 11.03125 -5.972656 11.222656 -3.207031 11.453125 0 L 8.015625 0 C 8.242188 -3.207031 8.429688 -5.972656 8.578125 -8.296875 C 8.734375 -10.628906 8.832031 -12.898438 8.875 -15.109375 C 8.914062 -17.328125 8.9375 -19.8125 8.9375 -22.5625 L 8.9375 -69.0625 C 8.9375 -71.882812 8.914062 -74.382812 8.875 -76.5625 C 8.832031 -78.738281 8.734375 -80.988281 8.578125 -83.3125 C 8.429688 -85.644531 8.242188 -88.414062 8.015625 -91.625 L 20.953125 -91.625 L 74.671875 -4.46875 L 74.671875 -69.0625 C 74.671875 -71.882812 74.648438 -74.382812 74.609375 -76.5625 C 74.578125 -78.738281 74.503906 -80.988281 74.390625 -83.3125 C 74.273438 -85.644531 74.066406 -88.414062 73.765625 -91.625 L 77.1875 -91.625 C 76.957031 -88.414062 76.765625 -85.644531 76.609375 -83.3125 C 76.460938 -80.988281 76.367188 -78.738281 76.328125 -76.5625 C 76.296875 -74.382812 76.28125 -71.882812 76.28125 -69.0625 Z M 76.28125 -69.0625 "/></g></g></g><g fill="#38b6ff" fill-opacity="1"><g transform="translate(85.465871, 97.705373)"><g><path d="M 8.015625 -91.625 L 62.078125 -91.625 L 56.921875 -85.21875 C 53.710938 -86.507812 50.410156 -87.476562 47.015625 -88.125 C 43.617188 -88.78125 40.503906 -89.222656 37.671875 -89.453125 C 34.847656 -89.679688 32.5625 -89.796875 30.8125 -89.796875 L 20.390625 -89.796875 L 20.390625 -49.484375 L 27.71875 -49.484375 C 30.769531 -49.484375 34.015625 -49.539062 37.453125 -49.65625 C 40.890625 -49.769531 45.28125 -50.09375 50.625 -50.625 L 50.625 -46.5 C 45.28125 -47.113281 40.890625 -47.457031 37.453125 -47.53125 C 34.015625 -47.601562 30.769531 -47.640625 27.71875 -47.640625 L 20.390625 -47.640625 L 20.390625 -1.828125 L 33.21875 -1.828125 C 37.03125 -1.828125 40.539062 -1.921875 43.75 -2.109375 C 46.957031 -2.304688 50.257812 -2.726562 53.65625 -3.375 C 57.050781 -4.03125 60.890625 -4.96875 65.171875 -6.1875 L 61.84375 0 L 8.015625 0 C 8.316406 -3.207031 8.546875 -5.972656 8.703125 -8.296875 C 8.859375 -10.628906 8.953125 -12.898438 8.984375 -15.109375 C 9.023438 -17.328125 9.046875 -19.8125 9.046875 -22.5625 L 9.046875 -69.0625 C 9.046875 -71.882812 9.023438 -74.382812 8.984375 -76.5625 C 8.953125 -78.738281 8.859375 -80.988281 8.703125 -83.3125 C 8.546875 -85.644531 8.316406 -88.414062 8.015625 -91.625 Z M 8.015625 -91.625 "/></g></g></g><g fill="#38b6ff" fill-opacity="1"><g transform="translate(152.813299, 97.705373)"><g><path d="M 60.125 -10.421875 C 61.195312 -8.359375 62.113281 -6.660156 62.875 -5.328125 C 63.632812 -3.992188 64.859375 -2.21875 66.546875 0 L 51.765625 0 C 51.003906 -2.21875 50.351562 -3.992188 49.8125 -5.328125 C 49.28125 -6.660156 48.484375 -8.359375 47.421875 -10.421875 L 31.375 -41.6875 L 14.4375 -10.421875 C 13.289062 -8.285156 12.390625 -6.566406 11.734375 -5.265625 C 11.085938 -3.972656 10.269531 -2.21875 9.28125 0 L 5.84375 0 C 6.988281 -1.53125 7.882812 -2.8125 8.53125 -3.84375 C 9.175781 -4.875 9.765625 -5.882812 10.296875 -6.875 C 10.835938 -7.863281 11.488281 -9.046875 12.25 -10.421875 L 30.34375 -43.640625 L 11.109375 -81.203125 C 10.421875 -82.578125 9.789062 -83.757812 9.21875 -84.75 C 8.644531 -85.738281 8.015625 -86.769531 7.328125 -87.84375 C 6.640625 -88.914062 5.722656 -90.175781 4.578125 -91.625 L 19.359375 -91.625 C 20.046875 -89.40625 20.691406 -87.628906 21.296875 -86.296875 C 21.910156 -84.960938 22.710938 -83.265625 23.703125 -81.203125 L 39.75 -49.9375 L 56.578125 -80.75 C 57.796875 -83.039062 58.75 -84.867188 59.4375 -86.234375 C 60.125 -87.609375 60.925781 -89.40625 61.84375 -91.625 L 65.28125 -91.625 C 64.207031 -90.175781 63.328125 -88.914062 62.640625 -87.84375 C 61.960938 -86.769531 61.335938 -85.695312 60.765625 -84.625 C 60.191406 -83.5625 59.484375 -82.269531 58.640625 -80.75 L 40.765625 -47.984375 Z M 60.125 -10.421875 "/></g></g></g><g fill="#38b6ff" fill-opacity="1"><g transform="translate(222.680529, 97.705373)"><g><path d="M 8.015625 -91.625 L 21.078125 -91.625 C 20.847656 -88.414062 20.65625 -85.644531 20.5 -83.3125 C 20.34375 -80.988281 20.242188 -78.738281 20.203125 -76.5625 C 20.171875 -74.382812 20.15625 -71.882812 20.15625 -69.0625 L 20.15625 -22.5625 C 20.15625 -19.8125 20.171875 -17.328125 20.203125 -15.109375 C 20.242188 -12.898438 20.34375 -10.628906 20.5 -8.296875 C 20.65625 -5.972656 20.847656 -3.207031 21.078125 0 L 8.015625 0 C 8.242188 -3.207031 8.429688 -5.972656 8.578125 -8.296875 C 8.734375 -10.628906 8.832031 -12.898438 8.875 -15.109375 C 8.914062 -17.328125 8.9375 -19.8125 8.9375 -22.5625 L 8.9375 -69.0625 C 8.9375 -71.882812 8.914062 -74.382812 8.875 -76.5625 C 8.832031 -78.738281 8.734375 -80.988281 8.578125 -83.3125 C 8.429688 -85.644531 8.242188 -88.414062 8.015625 -91.625 Z M 8.015625 -91.625 "/></g></g></g><g fill="#38b6ff" fill-opacity="1"><g transform="translate(250.512868, 97.705373)"><g><path d="M 66.421875 -12.25 C 67.191406 -9.65625 67.898438 -7.519531 68.546875 -5.84375 C 69.191406 -4.164062 70.085938 -2.21875 71.234375 0 L 56.921875 0 C 56.847656 -2.59375 56.597656 -4.671875 56.171875 -6.234375 C 55.753906 -7.804688 55.203125 -9.8125 54.515625 -12.25 L 48.5625 -33.328125 L 17.859375 -33.328125 L 11.6875 -11.6875 C 11.070312 -9.539062 10.535156 -7.664062 10.078125 -6.0625 C 9.617188 -4.46875 9.273438 -2.445312 9.046875 0 L 5.734375 0 C 7.023438 -2.519531 7.878906 -4.539062 8.296875 -6.0625 C 8.722656 -7.59375 9.238281 -9.425781 9.84375 -11.5625 L 30.8125 -85.4375 C 31.113281 -86.65625 31.242188 -87.6875 31.203125 -88.53125 C 31.171875 -89.375 30.960938 -90.40625 30.578125 -91.625 L 44.09375 -91.625 Z M 18.328125 -35.15625 L 48.109375 -35.15625 L 33.21875 -87.734375 Z M 18.328125 -35.15625 "/></g></g></g></g></g><path fill="#38b6ff" d="M 187.5 375 C 291.058594 375 375 291.058594 375 187.5 C 375 83.941406 291.058594 0 187.5 0 C 83.941406 0 0 83.941406 0 187.5 C 0 291.058594 83.941406 375 187.5 375 Z M 187.5 371.441406 C 289.085938 371.441406 371.460938 289.085938 371.460938 187.5 C 371.460938 85.914062 289.085938 3.558594 187.5 3.558594 C 85.914062 3.558594 3.558594 85.914062 3.558594 187.5 C 3.558594 289.085938 85.914062 371.441406 187.5 371.441406 Z M 187.5 371.441406 " fill-opacity="1" fill-rule="evenodd"/></svg>