<svg xmlns="http://www.w3.org/2000/svg" xmlns:xlink="http://www.w3.org/1999/xlink" width="500" zoomAndPan="magnify" viewBox="0 0 375 374.999991" height="500" preserveAspectRatio="xMidYMid meet" version="1.0"><defs><g/><clipPath id="8eb967911a"><path d="M 42 14 L 361 14 L 361 224 L 42 224 Z M 42 14 " clip-rule="nonzero"/></clipPath><clipPath id="92a39700c1"><path d="M 88.652344 -24.898438 L 399.867188 67.460938 L 353.6875 223.070312 L 42.472656 130.710938 Z M 88.652344 -24.898438 " clip-rule="nonzero"/></clipPath><clipPath id="561a552def"><path d="M 88.652344 -24.898438 L 399.867188 67.460938 L 353.6875 223.070312 L 42.472656 130.710938 Z M 88.652344 -24.898438 " clip-rule="nonzero"/></clipPath><clipPath id="4eef0d47e3"><path d="M 31 212 L 341 212 L 341 358 L 31 358 Z M 31 212 " clip-rule="nonzero"/></clipPath><clipPath id="b0c7ab147f"><path d="M 317.070312 389.226562 L 0.507812 317.296875 L 24.324219 212.476562 L 340.886719 284.40625 Z M 317.070312 389.226562 " clip-rule="nonzero"/></clipPath><clipPath id="f3245af401"><path d="M 317.070312 389.226562 L 0.507812 317.296875 L 36.472656 159.015625 L 353.035156 230.949219 Z M 317.070312 389.226562 " clip-rule="nonzero"/></clipPath><clipPath id="204a3f18c7"><rect x="0" width="375" y="0" height="375"/></clipPath></defs><g transform="matrix(1, 0, 0, 1, 0, 0)"><g clip-path="url(#204a3f18c7)"><g clip-path="url(#8eb967911a)"><g clip-path="url(#92a39700c1)"><g clip-path="url(#561a552def)"><path fill="#38b6ff" d="M 354.082031 223.417969 L 351.128906 222.542969 C 376.144531 138.246094 327.921875 49.324219 243.636719 24.308594 C 159.347656 -0.707031 70.417969 47.515625 45.402344 131.808594 L 42.449219 130.933594 C 54.800781 89.316406 82.617188 54.992188 120.785156 34.296875 C 158.949219 13.601562 202.886719 9.003906 244.511719 21.355469 C 286.136719 33.710938 320.445312 61.53125 341.140625 99.691406 C 361.835938 137.855469 366.433594 181.796875 354.082031 223.417969 Z M 354.082031 223.417969 " fill-opacity="1" fill-rule="nonzero"/></g></g></g><g fill="#38b6ff" fill-opacity="1"><g transform="translate(0.0000045, 217.282846)"><g><path d="M 65.859375 -59.625 L 65.859375 -19.484375 C 65.859375 -17.109375 65.875 -14.960938 65.90625 -13.046875 C 65.9375 -11.140625 66.019531 -9.179688 66.15625 -7.171875 C 66.289062 -5.160156 66.457031 -2.769531 66.65625 0 L 55.484375 0 L 9.09375 -75.25 L 9.09375 -19.484375 C 9.09375 -17.109375 9.109375 -14.960938 9.140625 -13.046875 C 9.179688 -11.140625 9.265625 -9.179688 9.390625 -7.171875 C 9.523438 -5.160156 9.691406 -2.769531 9.890625 0 L 6.921875 0 C 7.117188 -2.769531 7.28125 -5.160156 7.40625 -7.171875 C 7.539062 -9.179688 7.625 -11.140625 7.65625 -13.046875 C 7.695312 -14.960938 7.71875 -17.109375 7.71875 -19.484375 L 7.71875 -59.625 C 7.71875 -62.070312 7.695312 -64.234375 7.65625 -66.109375 C 7.625 -67.984375 7.539062 -69.925781 7.40625 -71.9375 C 7.28125 -73.945312 7.117188 -76.335938 6.921875 -79.109375 L 18.09375 -79.109375 L 64.484375 -3.859375 L 64.484375 -59.625 C 64.484375 -62.070312 64.460938 -64.234375 64.421875 -66.109375 C 64.390625 -67.984375 64.320312 -69.925781 64.21875 -71.9375 C 64.125 -73.945312 63.945312 -76.335938 63.6875 -79.109375 L 66.65625 -79.109375 C 66.457031 -76.335938 66.289062 -73.945312 66.15625 -71.9375 C 66.019531 -69.925781 65.9375 -67.984375 65.90625 -66.109375 C 65.875 -64.234375 65.859375 -62.070312 65.859375 -59.625 Z M 65.859375 -59.625 "/></g></g></g><g fill="#38b6ff" fill-opacity="1"><g transform="translate(72.476792, 217.282846)"><g><path d="M 6.921875 -79.109375 L 53.59375 -79.109375 L 49.15625 -73.578125 C 46.382812 -74.691406 43.53125 -75.53125 40.59375 -76.09375 C 37.65625 -76.65625 34.96875 -77.035156 32.53125 -77.234375 C 30.09375 -77.429688 28.113281 -77.53125 26.59375 -77.53125 L 17.609375 -77.53125 L 17.609375 -42.71875 L 23.9375 -42.71875 C 26.570312 -42.71875 29.367188 -42.765625 32.328125 -42.859375 C 35.296875 -42.960938 39.085938 -43.242188 43.703125 -43.703125 L 43.703125 -40.15625 C 39.085938 -40.675781 35.296875 -40.96875 32.328125 -41.03125 C 29.367188 -41.101562 26.570312 -41.140625 23.9375 -41.140625 L 17.609375 -41.140625 L 17.609375 -1.578125 L 28.671875 -1.578125 C 31.972656 -1.578125 35.003906 -1.660156 37.765625 -1.828125 C 40.535156 -1.992188 43.390625 -2.359375 46.328125 -2.921875 C 49.265625 -3.484375 52.578125 -4.289062 56.265625 -5.34375 L 53.40625 0 L 6.921875 0 C 7.179688 -2.769531 7.378906 -5.160156 7.515625 -7.171875 C 7.648438 -9.179688 7.734375 -11.140625 7.765625 -13.046875 C 7.796875 -14.960938 7.8125 -17.109375 7.8125 -19.484375 L 7.8125 -59.625 C 7.8125 -62.070312 7.796875 -64.234375 7.765625 -66.109375 C 7.734375 -67.984375 7.648438 -69.925781 7.515625 -71.9375 C 7.378906 -73.945312 7.179688 -76.335938 6.921875 -79.109375 Z M 6.921875 -79.109375 "/></g></g></g><g fill="#38b6ff" fill-opacity="1"><g transform="translate(130.616389, 217.282846)"><g><path d="M 51.921875 -9 C 52.835938 -7.21875 53.625 -5.75 54.28125 -4.59375 C 54.945312 -3.445312 56.003906 -1.914062 57.453125 0 L 44.703125 0 C 44.035156 -1.914062 43.472656 -3.445312 43.015625 -4.59375 C 42.554688 -5.75 41.863281 -7.21875 40.9375 -9 L 27.09375 -36 L 12.453125 -9 C 11.472656 -7.15625 10.703125 -5.671875 10.140625 -4.546875 C 9.578125 -3.429688 8.867188 -1.914062 8.015625 0 L 5.046875 0 C 6.035156 -1.320312 6.804688 -2.425781 7.359375 -3.3125 C 7.921875 -4.195312 8.429688 -5.066406 8.890625 -5.921875 C 9.359375 -6.785156 9.921875 -7.8125 10.578125 -9 L 26.203125 -37.671875 L 9.59375 -70.109375 C 9 -71.296875 8.453125 -72.316406 7.953125 -73.171875 C 7.460938 -74.035156 6.921875 -74.925781 6.328125 -75.84375 C 5.734375 -76.769531 4.941406 -77.859375 3.953125 -79.109375 L 16.71875 -79.109375 C 17.3125 -77.203125 17.867188 -75.671875 18.390625 -74.515625 C 18.921875 -73.359375 19.613281 -71.890625 20.46875 -70.109375 L 34.3125 -43.109375 L 48.859375 -69.71875 C 49.910156 -71.695312 50.734375 -73.28125 51.328125 -74.46875 C 51.921875 -75.65625 52.613281 -77.203125 53.40625 -79.109375 L 56.375 -79.109375 C 55.445312 -77.859375 54.6875 -76.769531 54.09375 -75.84375 C 53.5 -74.925781 52.953125 -74.003906 52.453125 -73.078125 C 51.960938 -72.160156 51.351562 -71.039062 50.625 -69.71875 L 35.203125 -41.4375 Z M 51.921875 -9 "/></g></g></g><g fill="#38b6ff" fill-opacity="1"><g transform="translate(190.931297, 217.282846)"><g><path d="M 6.921875 -79.109375 L 18.203125 -79.109375 C 18.003906 -76.335938 17.835938 -73.945312 17.703125 -71.9375 C 17.566406 -69.925781 17.484375 -67.984375 17.453125 -66.109375 C 17.421875 -64.234375 17.40625 -62.070312 17.40625 -59.625 L 17.40625 -19.484375 C 17.40625 -17.109375 17.421875 -14.960938 17.453125 -13.046875 C 17.484375 -11.140625 17.566406 -9.179688 17.703125 -7.171875 C 17.835938 -5.160156 18.003906 -2.769531 18.203125 0 L 6.921875 0 C 7.117188 -2.769531 7.28125 -5.160156 7.40625 -7.171875 C 7.539062 -9.179688 7.625 -11.140625 7.65625 -13.046875 C 7.695312 -14.960938 7.71875 -17.109375 7.71875 -19.484375 L 7.71875 -59.625 C 7.71875 -62.070312 7.695312 -64.234375 7.65625 -66.109375 C 7.625 -67.984375 7.539062 -69.925781 7.40625 -71.9375 C 7.28125 -73.945312 7.117188 -76.335938 6.921875 -79.109375 Z M 6.921875 -79.109375 "/></g></g></g><g fill="#38b6ff" fill-opacity="1"><g transform="translate(214.958275, 217.282846)"><g><path d="M 57.359375 -10.578125 C 58.015625 -8.335938 58.625 -6.492188 59.1875 -5.046875 C 59.75 -3.597656 60.523438 -1.914062 61.515625 0 L 49.15625 0 C 49.082031 -2.238281 48.863281 -4.035156 48.5 -5.390625 C 48.144531 -6.742188 47.671875 -8.472656 47.078125 -10.578125 L 41.921875 -28.78125 L 15.421875 -28.78125 L 10.09375 -10.09375 C 9.5625 -8.238281 9.097656 -6.617188 8.703125 -5.234375 C 8.304688 -3.859375 8.007812 -2.113281 7.8125 0 L 4.9375 0 C 6.0625 -2.175781 6.804688 -3.921875 7.171875 -5.234375 C 7.535156 -6.554688 7.976562 -8.140625 8.5 -9.984375 L 26.59375 -73.765625 C 26.863281 -74.828125 26.976562 -75.71875 26.9375 -76.4375 C 26.90625 -77.164062 26.726562 -78.054688 26.40625 -79.109375 L 38.078125 -79.109375 Z M 15.828125 -30.359375 L 41.53125 -30.359375 L 28.671875 -75.75 Z M 15.828125 -30.359375 "/></g></g></g><g fill="#ffffff" fill-opacity="1"><g transform="translate(213.622469, 262.523905)"><g><path d="M 4.921875 0 L 4.921875 -32.671875 L 23.484375 -32.671875 L 23.484375 -29.28125 L 9.46875 -29.28125 L 9.46875 -18.390625 L 22.671875 -18.390625 L 22.671875 -15 L 9.46875 -15 L 9.46875 0 Z M 4.921875 0 "/></g></g></g><g fill="#ffffff" fill-opacity="1"><g transform="translate(239.299905, 262.523905)"><g><path d="M 4.65625 0 L 4.65625 -23.953125 L 8.90625 -23.953125 L 8.90625 0 Z M 4.65625 -28.265625 L 4.65625 -32.671875 L 8.90625 -32.671875 L 8.90625 -28.265625 Z M 4.65625 -28.265625 "/></g></g></g><g fill="#ffffff" fill-opacity="1"><g transform="translate(252.256882, 262.523905)"><g><path d="M 15.28125 0.1875 C 11.9375 0.1875 9.519531 -0.335938 8.03125 -1.390625 C 6.550781 -2.453125 5.8125 -4.269531 5.8125 -6.84375 L 5.8125 -20.75 L 1.8125 -20.75 L 1.8125 -23.953125 L 5.96875 -23.953125 L 6.484375 -31.359375 L 10.0625 -31.359375 L 10.0625 -23.953125 L 16.0625 -23.953125 L 16.0625 -20.75 L 10.0625 -20.75 L 10.0625 -7.125 C 10.0625 -5.613281 10.492188 -4.613281 11.359375 -4.125 C 12.222656 -3.632812 13.734375 -3.390625 15.890625 -3.390625 L 16.359375 -3.390625 L 15.90625 0.1875 Z M 15.28125 0.1875 "/></g></g></g><g fill="#ffffff" fill-opacity="1"><g transform="translate(270.726808, 262.523905)"><g><path d="M 19.484375 -17.65625 C 19.484375 -19.988281 17.695312 -21.15625 14.125 -21.15625 C 12.363281 -21.15625 10.976562 -20.773438 9.96875 -20.015625 C 8.957031 -19.265625 8.453125 -18.28125 8.453125 -17.0625 L 8.453125 0 L 4.203125 0 L 4.203125 -23.953125 L 8.453125 -23.953125 L 8.453125 -21.625 C 10.046875 -23.476562 12.410156 -24.40625 15.546875 -24.40625 C 19.617188 -24.40625 22.195312 -22.972656 23.28125 -20.109375 C 23.582031 -19.296875 23.734375 -18.394531 23.734375 -17.40625 L 23.734375 0 L 19.484375 0 Z M 19.484375 -17.65625 "/></g></g></g><g fill="#ffffff" fill-opacity="1"><g transform="translate(297.918037, 262.523905)"><g><path d="M 13.3125 0.5 C 9.800781 0.5 7.257812 -0.226562 5.6875 -1.6875 C 4.125 -3.15625 3.34375 -5.410156 3.34375 -8.453125 L 3.34375 -16.796875 C 3.34375 -19.160156 4.148438 -21.019531 5.765625 -22.375 C 7.378906 -23.726562 9.816406 -24.40625 13.078125 -24.40625 C 16.335938 -24.40625 18.757812 -23.773438 20.34375 -22.515625 C 21.9375 -21.253906 22.734375 -19.457031 22.734375 -17.125 L 22.734375 -11.4375 L 7.59375 -11.4375 L 7.59375 -8.0625 C 7.59375 -6.070312 7.988281 -4.6875 8.78125 -3.90625 C 9.582031 -3.132812 11.019531 -2.75 13.09375 -2.75 C 15.175781 -2.75 16.351562 -2.796875 16.625 -2.890625 C 16.90625 -2.984375 17.1875 -3.085938 17.46875 -3.203125 C 17.75 -3.328125 17.945312 -3.472656 18.0625 -3.640625 C 18.175781 -3.804688 18.328125 -4.054688 18.515625 -4.390625 C 18.703125 -4.734375 18.84375 -5.394531 18.9375 -6.375 L 22.6875 -6.375 C 22.539062 -4.9375 22.289062 -3.78125 21.9375 -2.90625 C 21.582031 -2.039062 21.023438 -1.347656 20.265625 -0.828125 C 19.503906 -0.304688 18.59375 0.0390625 17.53125 0.21875 C 16.46875 0.40625 15.0625 0.5 13.3125 0.5 Z M 7.59375 -14.3125 L 18.625 -14.3125 L 18.625 -17.578125 C 18.625 -18.929688 18.160156 -19.863281 17.234375 -20.375 C 16.304688 -20.894531 14.945312 -21.15625 13.15625 -21.15625 C 11.363281 -21.15625 9.988281 -20.84375 9.03125 -20.21875 C 8.070312 -19.601562 7.59375 -18.585938 7.59375 -17.171875 Z M 7.59375 -14.3125 "/></g></g></g><g fill="#ffffff" fill-opacity="1"><g transform="translate(323.572869, 262.523905)"><g><path d="M 11.359375 -2.75 C 14.578125 -2.75 16.1875 -3.945312 16.1875 -6.34375 C 16.1875 -7.382812 16.039062 -8.15625 15.75 -8.65625 C 15.46875 -9.164062 14.796875 -9.617188 13.734375 -10.015625 L 8.046875 -12.109375 C 6.296875 -12.734375 5.078125 -13.46875 4.390625 -14.3125 C 3.703125 -15.164062 3.359375 -16.234375 3.359375 -17.515625 C 3.359375 -18.796875 3.488281 -19.820312 3.75 -20.59375 C 4.007812 -21.375 4.429688 -22.054688 5.015625 -22.640625 C 6.191406 -23.816406 8.300781 -24.40625 11.34375 -24.40625 C 14.382812 -24.40625 17.003906 -23.96875 19.203125 -23.09375 L 18.234375 -19.84375 C 17.460938 -20.15625 16.453125 -20.453125 15.203125 -20.734375 C 13.953125 -21.015625 12.863281 -21.15625 11.9375 -21.15625 C 9.78125 -21.15625 8.414062 -20.804688 7.84375 -20.109375 C 7.5 -19.671875 7.328125 -19.03125 7.328125 -18.1875 C 7.328125 -17.34375 7.460938 -16.742188 7.734375 -16.390625 C 8.015625 -16.035156 8.5625 -15.71875 9.375 -15.4375 L 15 -13.21875 C 16.957031 -12.445312 18.242188 -11.597656 18.859375 -10.671875 C 19.484375 -9.742188 19.796875 -8.285156 19.796875 -6.296875 C 19.796875 -4.316406 19.15625 -2.6875 17.875 -1.40625 C 16.59375 -0.132812 14.613281 0.5 11.9375 0.5 C 9.976562 0.5 8.234375 0.289062 6.703125 -0.125 C 5.179688 -0.550781 4.015625 -0.992188 3.203125 -1.453125 L 4.25 -4.5625 C 6.40625 -3.351562 8.773438 -2.75 11.359375 -2.75 Z M 11.359375 -2.75 "/></g></g></g><g fill="#ffffff" fill-opacity="1"><g transform="translate(345.47709, 262.523905)"><g><path d="M 11.359375 -2.75 C 14.578125 -2.75 16.1875 -3.945312 16.1875 -6.34375 C 16.1875 -7.382812 16.039062 -8.15625 15.75 -8.65625 C 15.46875 -9.164062 14.796875 -9.617188 13.734375 -10.015625 L 8.046875 -12.109375 C 6.296875 -12.734375 5.078125 -13.46875 4.390625 -14.3125 C 3.703125 -15.164062 3.359375 -16.234375 3.359375 -17.515625 C 3.359375 -18.796875 3.488281 -19.820312 3.75 -20.59375 C 4.007812 -21.375 4.429688 -22.054688 5.015625 -22.640625 C 6.191406 -23.816406 8.300781 -24.40625 11.34375 -24.40625 C 14.382812 -24.40625 17.003906 -23.96875 19.203125 -23.09375 L 18.234375 -19.84375 C 17.460938 -20.15625 16.453125 -20.453125 15.203125 -20.734375 C 13.953125 -21.015625 12.863281 -21.15625 11.9375 -21.15625 C 9.78125 -21.15625 8.414062 -20.804688 7.84375 -20.109375 C 7.5 -19.671875 7.328125 -19.03125 7.328125 -18.1875 C 7.328125 -17.34375 7.460938 -16.742188 7.734375 -16.390625 C 8.015625 -16.035156 8.5625 -15.71875 9.375 -15.4375 L 15 -13.21875 C 16.957031 -12.445312 18.242188 -11.597656 18.859375 -10.671875 C 19.484375 -9.742188 19.796875 -8.285156 19.796875 -6.296875 C 19.796875 -4.316406 19.15625 -2.6875 17.875 -1.40625 C 16.59375 -0.132812 14.613281 0.5 11.9375 0.5 C 9.976562 0.5 8.234375 0.289062 6.703125 -0.125 C 5.179688 -0.550781 4.015625 -0.992188 3.203125 -1.453125 L 4.25 -4.5625 C 6.40625 -3.351562 8.773438 -2.75 11.359375 -2.75 Z M 11.359375 -2.75 "/></g></g></g><g clip-path="url(#4eef0d47e3)"><g clip-path="url(#b0c7ab147f)"><g clip-path="url(#f3245af401)"><path fill="#38b6ff" d="M 36.058594 158.695312 L 39.0625 159.378906 C 19.578125 245.121094 73.480469 330.722656 159.21875 350.203125 C 244.953125 369.683594 330.558594 315.785156 350.042969 230.042969 L 353.046875 230.722656 C 343.425781 273.058594 317.898438 309.117188 281.15625 332.25 C 244.421875 355.378906 200.875 362.824219 158.535156 353.207031 C 116.195312 343.585938 80.148438 318.054688 57.015625 281.316406 C 33.882812 244.582031 26.441406 201.03125 36.058594 158.695312 Z M 36.058594 158.695312 " fill-opacity="1" fill-rule="nonzero"/></g></g></g></g></g></svg>