<svg xmlns="http://www.w3.org/2000/svg" xmlns:xlink="http://www.w3.org/1999/xlink" width="1080" zoomAndPan="magnify" viewBox="0 0 810 809.999993" height="1080" preserveAspectRatio="xMidYMid meet" version="1.0"><defs><g/><clipPath id="83d75c99b3"><path d="M 91 31 L 780 31 L 780 482 L 91 482 Z M 91 31 " clip-rule="nonzero"/></clipPath><clipPath id="b51200d33d"><path d="M 191.492188 -53.777344 L 863.714844 145.71875 L 763.96875 481.832031 L 91.746094 282.335938 Z M 191.492188 -53.777344 " clip-rule="nonzero"/></clipPath><clipPath id="172d24d7cf"><path d="M 191.492188 -53.777344 L 863.714844 145.71875 L 763.96875 481.832031 L 91.746094 282.335938 Z M 191.492188 -53.777344 " clip-rule="nonzero"/></clipPath><clipPath id="3c95de7649"><path d="M 69 458 L 737 458 L 737 772 L 69 772 Z M 69 458 " clip-rule="nonzero"/></clipPath><clipPath id="6f0d5668ad"><path d="M 684.871094 840.734375 L 1.097656 685.363281 L 52.542969 458.949219 L 736.316406 614.316406 Z M 684.871094 840.734375 " clip-rule="nonzero"/></clipPath><clipPath id="c86e9e7fd4"><path d="M 684.871094 840.734375 L 1.097656 685.363281 L 78.78125 343.476562 L 762.554688 498.847656 Z M 684.871094 840.734375 " clip-rule="nonzero"/></clipPath><clipPath id="3fcd15ad56"><rect x="0" width="810" y="0" height="810"/></clipPath></defs><g transform="matrix(1, 0, 0, 1, 0, 0.000000000000039746)"><g clip-path="url(#3fcd15ad56)"><g clip-path="url(#83d75c99b3)"><g clip-path="url(#b51200d33d)"><g clip-path="url(#172d24d7cf)"><path fill="#38b6ff" d="M 764.816406 482.582031 L 758.441406 480.6875 C 812.476562 298.613281 708.3125 106.539062 526.25 52.507812 C 344.1875 -1.523438 152.101562 102.632812 98.066406 284.710938 L 91.691406 282.816406 C 118.367188 192.921875 178.457031 118.78125 260.898438 74.082031 C 343.328125 29.382812 438.234375 19.449219 528.144531 46.132812 C 618.050781 72.8125 692.164062 132.90625 736.863281 215.335938 C 781.566406 297.765625 791.496094 392.683594 764.816406 482.582031 Z M 764.816406 482.582031 " fill-opacity="1" fill-rule="nonzero"/></g></g></g><g fill="#38b6ff" fill-opacity="1"><g transform="translate(0.0000035, 469.330928)"><g><path d="M 142.25 -128.796875 L 142.25 -42.078125 C 142.25 -36.953125 142.285156 -32.320312 142.359375 -28.1875 C 142.429688 -24.0625 142.609375 -19.828125 142.890625 -15.484375 C 143.179688 -11.140625 143.539062 -5.976562 143.96875 0 L 119.828125 0 L 19.65625 -162.546875 L 19.65625 -42.078125 C 19.65625 -36.953125 19.6875 -32.320312 19.75 -28.1875 C 19.820312 -24.0625 20 -19.828125 20.28125 -15.484375 C 20.570312 -11.140625 20.929688 -5.976562 21.359375 0 L 14.953125 0 C 15.378906 -5.976562 15.734375 -11.140625 16.015625 -15.484375 C 16.304688 -19.828125 16.484375 -24.0625 16.546875 -28.1875 C 16.617188 -32.320312 16.65625 -36.953125 16.65625 -42.078125 L 16.65625 -128.796875 C 16.65625 -134.066406 16.617188 -138.726562 16.546875 -142.78125 C 16.484375 -146.84375 16.304688 -151.046875 16.015625 -155.390625 C 15.734375 -159.734375 15.378906 -164.894531 14.953125 -170.875 L 39.09375 -170.875 L 139.265625 -8.328125 L 139.265625 -128.796875 C 139.265625 -134.066406 139.226562 -138.726562 139.15625 -142.78125 C 139.082031 -146.84375 138.9375 -151.046875 138.71875 -155.390625 C 138.507812 -159.734375 138.117188 -164.894531 137.546875 -170.875 L 143.96875 -170.875 C 143.539062 -164.894531 143.179688 -159.734375 142.890625 -155.390625 C 142.609375 -151.046875 142.429688 -146.84375 142.359375 -142.78125 C 142.285156 -138.726562 142.25 -134.066406 142.25 -128.796875 Z M 142.25 -128.796875 "/></g></g></g><g fill="#38b6ff" fill-opacity="1"><g transform="translate(156.549862, 469.330928)"><g><path d="M 14.953125 -170.875 L 115.765625 -170.875 L 106.15625 -158.90625 C 100.175781 -161.332031 94.015625 -163.148438 87.671875 -164.359375 C 81.335938 -165.566406 75.535156 -166.382812 70.265625 -166.8125 C 65.003906 -167.238281 60.734375 -167.453125 57.453125 -167.453125 L 38.015625 -167.453125 L 38.015625 -92.265625 L 51.6875 -92.265625 C 57.382812 -92.265625 63.4375 -92.367188 69.84375 -92.578125 C 76.25 -92.796875 84.4375 -93.40625 94.40625 -94.40625 L 94.40625 -86.71875 C 84.4375 -87.851562 76.25 -88.492188 69.84375 -88.640625 C 63.4375 -88.785156 57.382812 -88.859375 51.6875 -88.859375 L 38.015625 -88.859375 L 38.015625 -3.421875 L 61.9375 -3.421875 C 69.0625 -3.421875 75.613281 -3.597656 81.59375 -3.953125 C 87.570312 -4.304688 93.726562 -5.085938 100.0625 -6.296875 C 106.40625 -7.503906 113.5625 -9.25 121.53125 -11.53125 L 115.34375 0 L 14.953125 0 C 15.523438 -5.976562 15.953125 -11.140625 16.234375 -15.484375 C 16.515625 -19.828125 16.691406 -24.0625 16.765625 -28.1875 C 16.835938 -32.320312 16.875 -36.953125 16.875 -42.078125 L 16.875 -128.796875 C 16.875 -134.066406 16.835938 -138.726562 16.765625 -142.78125 C 16.691406 -146.84375 16.515625 -151.046875 16.234375 -155.390625 C 15.953125 -159.734375 15.523438 -164.894531 14.953125 -170.875 Z M 14.953125 -170.875 "/></g></g></g><g fill="#38b6ff" fill-opacity="1"><g transform="translate(282.131391, 469.330928)"><g><path d="M 112.140625 -19.4375 C 114.128906 -15.59375 115.835938 -12.421875 117.265625 -9.921875 C 118.691406 -7.429688 120.96875 -4.125 124.09375 0 L 96.546875 0 C 95.117188 -4.125 93.90625 -7.429688 92.90625 -9.921875 C 91.914062 -12.421875 90.421875 -15.59375 88.421875 -19.4375 L 58.53125 -77.75 L 26.90625 -19.4375 C 24.769531 -15.445312 23.097656 -12.238281 21.890625 -9.8125 C 20.679688 -7.394531 19.148438 -4.125 17.296875 0 L 10.890625 0 C 13.023438 -2.84375 14.695312 -5.222656 15.90625 -7.140625 C 17.125 -9.066406 18.226562 -10.957031 19.21875 -12.8125 C 20.21875 -14.664062 21.429688 -16.875 22.859375 -19.4375 L 56.609375 -81.375 L 20.71875 -151.4375 C 19.4375 -154 18.257812 -156.207031 17.1875 -158.0625 C 16.125 -159.914062 14.953125 -161.835938 13.671875 -163.828125 C 12.390625 -165.816406 10.679688 -168.164062 8.546875 -170.875 L 36.09375 -170.875 C 37.375 -166.75 38.582031 -163.4375 39.71875 -160.9375 C 40.863281 -158.445312 42.363281 -155.28125 44.21875 -151.4375 L 74.109375 -93.125 L 105.515625 -150.578125 C 107.796875 -154.847656 109.578125 -158.265625 110.859375 -160.828125 C 112.140625 -163.398438 113.632812 -166.75 115.34375 -170.875 L 121.75 -170.875 C 119.757812 -168.164062 118.117188 -165.816406 116.828125 -163.828125 C 115.546875 -161.835938 114.367188 -159.84375 113.296875 -157.84375 C 112.234375 -155.851562 110.921875 -153.429688 109.359375 -150.578125 L 76.046875 -89.5 Z M 112.140625 -19.4375 "/></g></g></g><g fill="#38b6ff" fill-opacity="1"><g transform="translate(412.411589, 469.330928)"><g><path d="M 14.953125 -170.875 L 39.296875 -170.875 C 38.867188 -164.894531 38.515625 -159.734375 38.234375 -155.390625 C 37.953125 -151.046875 37.773438 -146.84375 37.703125 -142.78125 C 37.628906 -138.726562 37.59375 -134.066406 37.59375 -128.796875 L 37.59375 -42.078125 C 37.59375 -36.953125 37.628906 -32.320312 37.703125 -28.1875 C 37.773438 -24.0625 37.953125 -19.828125 38.234375 -15.484375 C 38.515625 -11.140625 38.867188 -5.976562 39.296875 0 L 14.953125 0 C 15.378906 -5.976562 15.734375 -11.140625 16.015625 -15.484375 C 16.304688 -19.828125 16.484375 -24.0625 16.546875 -28.1875 C 16.617188 -32.320312 16.65625 -36.953125 16.65625 -42.078125 L 16.65625 -128.796875 C 16.65625 -134.066406 16.617188 -138.726562 16.546875 -142.78125 C 16.484375 -146.84375 16.304688 -151.046875 16.015625 -155.390625 C 15.734375 -159.734375 15.378906 -164.894531 14.953125 -170.875 Z M 14.953125 -170.875 "/></g></g></g><g fill="#38b6ff" fill-opacity="1"><g transform="translate(464.309862, 469.330928)"><g><path d="M 123.890625 -22.859375 C 125.304688 -18.015625 126.617188 -14.023438 127.828125 -10.890625 C 129.046875 -7.753906 130.722656 -4.125 132.859375 0 L 106.15625 0 C 106.007812 -4.84375 105.546875 -8.722656 104.765625 -11.640625 C 103.984375 -14.554688 102.953125 -18.296875 101.671875 -22.859375 L 90.5625 -62.15625 L 33.328125 -62.15625 L 21.78125 -21.78125 C 20.644531 -17.800781 19.648438 -14.3125 18.796875 -11.3125 C 17.941406 -8.320312 17.300781 -4.550781 16.875 0 L 10.671875 0 C 13.097656 -4.695312 14.703125 -8.46875 15.484375 -11.3125 C 16.265625 -14.164062 17.226562 -17.585938 18.375 -21.578125 L 57.453125 -159.34375 C 58.023438 -161.625 58.273438 -163.546875 58.203125 -165.109375 C 58.128906 -166.671875 57.738281 -168.59375 57.03125 -170.875 L 82.234375 -170.875 Z M 34.171875 -65.578125 L 89.703125 -65.578125 L 61.9375 -163.609375 Z M 34.171875 -65.578125 "/></g></g></g><g fill="#ffffff" fill-opacity="1"><g transform="translate(461.424501, 567.051638)"><g><path d="M 10.640625 0 L 10.640625 -70.578125 L 50.703125 -70.578125 L 50.703125 -63.25 L 20.453125 -63.25 L 20.453125 -39.734375 L 48.953125 -39.734375 L 48.953125 -32.40625 L 20.453125 -32.40625 L 20.453125 0 Z M 10.640625 0 "/></g></g></g><g fill="#ffffff" fill-opacity="1"><g transform="translate(516.887761, 567.051638)"><g><path d="M 10.046875 0 L 10.046875 -51.734375 L 19.234375 -51.734375 L 19.234375 0 Z M 10.046875 -61.0625 L 10.046875 -70.578125 L 19.234375 -70.578125 L 19.234375 -61.0625 Z M 10.046875 -61.0625 "/></g></g></g><g fill="#ffffff" fill-opacity="1"><g transform="translate(544.874832, 567.051638)"><g><path d="M 33 0.390625 C 25.769531 0.390625 20.550781 -0.742188 17.34375 -3.015625 C 14.144531 -5.296875 12.546875 -9.21875 12.546875 -14.78125 L 12.546875 -44.796875 L 3.90625 -44.796875 L 3.90625 -51.734375 L 12.890625 -51.734375 L 14 -67.734375 L 21.71875 -67.734375 L 21.71875 -51.734375 L 34.703125 -51.734375 L 34.703125 -44.796875 L 21.71875 -44.796875 L 21.71875 -15.375 C 21.71875 -12.125 22.648438 -9.96875 24.515625 -8.90625 C 26.390625 -7.851562 29.65625 -7.328125 34.3125 -7.328125 L 35.328125 -7.328125 L 34.359375 0.390625 Z M 33 0.390625 "/></g></g></g><g fill="#ffffff" fill-opacity="1"><g transform="translate(584.769871, 567.051638)"><g><path d="M 42.0625 -38.109375 C 42.0625 -43.160156 38.207031 -45.6875 30.5 -45.6875 C 26.695312 -45.6875 23.703125 -44.867188 21.515625 -43.234375 C 19.335938 -41.609375 18.25 -39.476562 18.25 -36.84375 L 18.25 0 L 9.078125 0 L 9.078125 -51.734375 L 18.25 -51.734375 L 18.25 -46.703125 C 21.695312 -50.703125 26.804688 -52.703125 33.578125 -52.703125 C 42.359375 -52.703125 47.921875 -49.613281 50.265625 -43.4375 C 50.921875 -41.675781 51.25 -39.722656 51.25 -37.578125 L 51.25 0 L 42.0625 0 Z M 42.0625 -38.109375 "/></g></g></g><g fill="#ffffff" fill-opacity="1"><g transform="translate(643.502924, 567.051638)"><g><path d="M 28.75 1.078125 C 21.164062 1.078125 15.679688 -0.5 12.296875 -3.65625 C 8.910156 -6.8125 7.21875 -11.675781 7.21875 -18.25 L 7.21875 -36.265625 C 7.21875 -41.367188 8.957031 -45.382812 12.4375 -48.3125 C 15.925781 -51.238281 21.191406 -52.703125 28.234375 -52.703125 C 35.273438 -52.703125 40.507812 -51.34375 43.9375 -48.625 C 47.375 -45.914062 49.09375 -42.039062 49.09375 -37 L 49.09375 -24.703125 L 16.40625 -24.703125 L 16.40625 -17.421875 C 16.40625 -13.128906 17.265625 -10.144531 18.984375 -8.46875 C 20.710938 -6.789062 23.820312 -5.953125 28.3125 -5.953125 C 32.800781 -5.953125 35.335938 -6.050781 35.921875 -6.25 C 36.503906 -6.445312 37.101562 -6.675781 37.71875 -6.9375 C 38.34375 -7.195312 38.773438 -7.503906 39.015625 -7.859375 C 39.265625 -8.210938 39.59375 -8.753906 40 -9.484375 C 40.40625 -10.222656 40.707031 -11.648438 40.90625 -13.765625 L 49 -13.765625 C 48.675781 -10.671875 48.128906 -8.179688 47.359375 -6.296875 C 46.597656 -4.410156 45.394531 -2.90625 43.75 -1.78125 C 42.113281 -0.65625 40.144531 0.0976562 37.84375 0.484375 C 35.550781 0.878906 32.519531 1.078125 28.75 1.078125 Z M 16.40625 -30.890625 L 40.21875 -30.890625 L 40.21875 -37.96875 C 40.21875 -40.894531 39.21875 -42.910156 37.21875 -44.015625 C 35.21875 -45.128906 32.28125 -45.6875 28.40625 -45.6875 C 24.53125 -45.6875 21.5625 -45.015625 19.5 -43.671875 C 17.4375 -42.335938 16.40625 -40.144531 16.40625 -37.09375 Z M 16.40625 -30.890625 "/></g></g></g><g fill="#ffffff" fill-opacity="1"><g transform="translate(698.917362, 567.051638)"><g><path d="M 24.546875 -5.953125 C 31.472656 -5.953125 34.9375 -8.539062 34.9375 -13.71875 C 34.9375 -15.957031 34.628906 -17.625 34.015625 -18.71875 C 33.398438 -19.8125 31.953125 -20.78125 29.671875 -21.625 L 17.375 -26.15625 C 13.601562 -27.488281 10.972656 -29.070312 9.484375 -30.90625 C 8.003906 -32.75 7.265625 -35.050781 7.265625 -37.8125 C 7.265625 -40.582031 7.539062 -42.804688 8.09375 -44.484375 C 8.65625 -46.160156 9.566406 -47.632812 10.828125 -48.90625 C 13.367188 -51.4375 17.925781 -52.703125 24.5 -52.703125 C 31.070312 -52.703125 36.734375 -51.757812 41.484375 -49.875 L 39.390625 -42.84375 C 37.722656 -43.53125 35.539062 -44.175781 32.84375 -44.78125 C 30.144531 -45.382812 27.785156 -45.6875 25.765625 -45.6875 C 21.117188 -45.6875 18.175781 -44.9375 16.9375 -43.4375 C 16.1875 -42.488281 15.8125 -41.101562 15.8125 -39.28125 C 15.8125 -37.46875 16.113281 -36.175781 16.71875 -35.40625 C 17.320312 -34.644531 18.5 -33.953125 20.25 -33.328125 L 32.40625 -28.546875 C 36.632812 -26.890625 39.414062 -25.0625 40.75 -23.0625 C 42.082031 -21.0625 42.75 -17.910156 42.75 -13.609375 C 42.75 -9.316406 41.363281 -5.796875 38.59375 -3.046875 C 35.832031 -0.296875 31.554688 1.078125 25.765625 1.078125 C 21.535156 1.078125 17.773438 0.625 14.484375 -0.28125 C 11.203125 -1.195312 8.6875 -2.144531 6.9375 -3.125 L 9.171875 -9.859375 C 13.828125 -7.253906 18.953125 -5.953125 24.546875 -5.953125 Z M 24.546875 -5.953125 "/></g></g></g><g fill="#ffffff" fill-opacity="1"><g transform="translate(746.230479, 567.051638)"><g><path d="M 24.546875 -5.953125 C 31.472656 -5.953125 34.9375 -8.539062 34.9375 -13.71875 C 34.9375 -15.957031 34.628906 -17.625 34.015625 -18.71875 C 33.398438 -19.8125 31.953125 -20.78125 29.671875 -21.625 L 17.375 -26.15625 C 13.601562 -27.488281 10.972656 -29.070312 9.484375 -30.90625 C 8.003906 -32.75 7.265625 -35.050781 7.265625 -37.8125 C 7.265625 -40.582031 7.539062 -42.804688 8.09375 -44.484375 C 8.65625 -46.160156 9.566406 -47.632812 10.828125 -48.90625 C 13.367188 -51.4375 17.925781 -52.703125 24.5 -52.703125 C 31.070312 -52.703125 36.734375 -51.757812 41.484375 -49.875 L 39.390625 -42.84375 C 37.722656 -43.53125 35.539062 -44.175781 32.84375 -44.78125 C 30.144531 -45.382812 27.785156 -45.6875 25.765625 -45.6875 C 21.117188 -45.6875 18.175781 -44.9375 16.9375 -43.4375 C 16.1875 -42.488281 15.8125 -41.101562 15.8125 -39.28125 C 15.8125 -37.46875 16.113281 -36.175781 16.71875 -35.40625 C 17.320312 -34.644531 18.5 -33.953125 20.25 -33.328125 L 32.40625 -28.546875 C 36.632812 -26.890625 39.414062 -25.0625 40.75 -23.0625 C 42.082031 -21.0625 42.75 -17.910156 42.75 -13.609375 C 42.75 -9.316406 41.363281 -5.796875 38.59375 -3.046875 C 35.832031 -0.296875 31.554688 1.078125 25.765625 1.078125 C 21.535156 1.078125 17.773438 0.625 14.484375 -0.28125 C 11.203125 -1.195312 8.6875 -2.144531 6.9375 -3.125 L 9.171875 -9.859375 C 13.828125 -7.253906 18.953125 -5.953125 24.546875 -5.953125 Z M 24.546875 -5.953125 "/></g></g></g><g clip-path="url(#3c95de7649)"><g clip-path="url(#6f0d5668ad)"><g clip-path="url(#c86e9e7fd4)"><path fill="#38b6ff" d="M 77.886719 342.785156 L 84.371094 344.257812 C 42.289062 529.460938 158.71875 714.359375 343.910156 756.4375 C 529.097656 798.519531 714.011719 682.09375 756.09375 496.886719 L 762.578125 498.363281 C 741.800781 589.804688 686.660156 667.695312 607.296875 717.65625 C 527.949219 767.621094 433.890625 783.703125 342.433594 762.921875 C 250.980469 742.144531 173.121094 686.996094 123.15625 607.648438 C 73.1875 528.296875 57.109375 434.226562 77.886719 342.785156 Z M 77.886719 342.785156 " fill-opacity="1" fill-rule="nonzero"/></g></g></g></g></g></svg>